<?xml version="1.0" standalone="no"?>
<!DOCTYPE svg PUBLIC "-//W3C//DTD SVG 20010904//EN"
 "http://www.w3.org/TR/2001/REC-SVG-20010904/DTD/svg10.dtd">
<svg version="1.0" xmlns="http://www.w3.org/2000/svg"
 width="256.000000pt" height="256.000000pt" viewBox="0 0 256.000000 256.000000"
 preserveAspectRatio="xMidYMid meet">
<metadata>
Created by potrace 1.14, written by Peter Selinger 2001-2017
</metadata>
<g transform="translate(0.000000,256.000000) scale(0.100000,-0.100000)"
fill="#000000" stroke="none">
<path d="M1435 2501 c-3 -3 -74 -6 -158 -7 -98 -2 -168 -7 -197 -17 -25 -7
-52 -13 -60 -11 -8 1 -31 5 -50 9 -59 11 -80 13 -85 5 -3 -4 -94 -7 -202 -6
-255 2 -306 -4 -401 -50 -91 -44 -119 -72 -116 -117 1 -18 3 -33 4 -34 2 -2 3
-6 4 -10 2 -5 8 -27 15 -51 17 -61 20 -150 6 -205 -16 -64 -12 -126 13 -165
16 -28 18 -40 10 -80 -4 -26 -5 -60 -1 -77 9 -41 5 -70 -21 -129 -21 -51 -22
-68 -15 -266 1 -30 1 -71 1 -90 -3 -63 -2 -258 0 -420 2 -96 -7 -230 -18 -285
-4 -16 -16 -38 -27 -48 -19 -16 -21 -16 -33 1 -7 10 -15 47 -17 82 -3 36 -8
72 -11 80 -11 27 -13 115 -3 140 20 56 27 105 26 210 0 47 0 154 1 237 1 119
-3 165 -16 207 -17 53 -17 56 4 118 23 68 33 124 24 133 -8 8 -12 43 -10 100
6 243 2 415 -10 427 -11 11 -15 9 -25 -7 -36 -60 -42 -121 -21 -212 10 -43 18
-89 17 -103 -3 -60 -13 -152 -19 -161 -8 -13 -14 -61 -18 -141 -2 -36 -6 -70
-8 -75 -2 -4 -3 -62 -1 -128 4 -213 4 -259 -3 -335 -8 -99 -7 -544 1 -595 7
-45 43 -125 55 -125 5 0 15 -6 22 -13 23 -22 88 -57 117 -62 56 -10 116 -17
134 -17 9 1 29 -6 45 -14 30 -15 62 -19 62 -6 0 5 6 9 13 10 32 5 427 6 427 2
0 -3 33 -6 73 -6 39 -1 97 -5 127 -9 81 -12 123 -12 139 0 8 5 15 8 15 6 1 -2
18 1 38 8 31 10 50 10 110 -5 40 -9 77 -21 82 -25 11 -10 -23 -24 -79 -33 -22
-4 -51 -9 -65 -11 -41 -8 -177 -8 -189 0 -12 7 -178 7 -245 0 -112 -12 -149
-26 -144 -53 3 -14 17 -17 78 -18 41 -1 95 -3 120 -4 25 -2 50 -2 55 1 6 2 38
4 72 4 35 0 63 2 63 5 0 3 34 5 75 5 41 0 75 -2 75 -5 0 -8 540 -4 585 4 50
10 55 14 31 32 -18 13 -69 18 -156 15 -79 -3 -114 1 -142 15 -33 17 -30 28 15
48 49 22 97 32 147 30 66 -2 191 -14 225 -21 17 -3 41 -7 54 -9 32 -3 45 -26
23 -38 -9 -4 -28 -15 -41 -23 -23 -15 -23 -16 -5 -26 25 -15 30 -15 162 -21
61 -2 115 0 118 5 3 5 14 9 25 9 10 0 28 9 39 20 11 11 20 17 20 14 0 -4 10 6
22 22 13 16 31 38 41 49 28 30 87 158 94 207 10 58 9 179 -1 313 -11 133 -11
431 -1 537 10 106 12 781 2 848 -17 122 -20 131 -41 142 -11 7 -25 12 -31 13
-20 1 -55 17 -55 24 0 17 -72 81 -83 74 -26 -16 -116 -20 -126 -6 -3 5 -58 9
-121 9 -125 1 -180 6 -222 23 -46 17 -21 48 47 58 48 7 66 7 147 -1 60 -6 82
-13 102 -31 14 -13 33 -22 43 -20 10 2 24 4 31 4 17 1 52 38 52 56 0 23 -60
48 -117 50 -29 1 -53 -2 -53 -7 0 -5 -6 -6 -12 -1 -19 11 -171 12 -185 1 -9
-7 -13 -7 -13 1 0 9 -5 9 -20 1 -11 -6 -20 -7 -20 -3 0 4 -55 8 -123 9 -67 1
-142 5 -167 9 -59 10 -138 13 -145 6z m-265 -65 c41 1 89 2 105 3 27 3 64 -2
120 -13 11 -3 20 -5 20 -6 0 -2 28 -6 87 -13 48 -6 88 -22 88 -35 -1 -13 -25
-39 -49 -52 -17 -9 -85 -14 -215 -17 -105 -2 -234 -6 -286 -8 -52 -2 -97 0
-100 3 -14 19 -77 29 -157 27 -93 -4 -111 -6 -130 -18 -6 -4 -31 0 -55 9 -24
8 -49 16 -55 16 -7 1 -13 4 -13 8 0 4 -6 7 -12 7 -7 0 -27 3 -43 7 -18 3 -42
0 -59 -9 -34 -18 -56 -19 -77 -2 -14 10 -15 17 -5 33 9 17 22 20 76 20 36 0
81 4 100 8 78 16 131 20 200 16 8 -1 47 1 85 5 39 3 96 8 128 9 32 2 60 6 63
9 3 2 28 2 57 -1 29 -4 86 -6 127 -6z m1314 -526 c31 -78 -9 -169 -59 -132
-34 24 -21 138 19 164 19 13 23 9 40 -32z m-28 -338 c34 -23 45 -121 31 -267
-11 -122 -20 -155 -40 -155 -36 0 -51 64 -61 263 -6 128 22 193 70 159z m-7
-701 c20 -13 24 -146 5 -165 -7 -8 -11 -16 -8 -19 3 -2 -2 -7 -11 -11 -11 -4
-19 3 -26 22 -14 35 -18 122 -6 122 5 0 4 6 -2 14 -9 11 -8 18 4 30 19 18 24
19 44 7z m3 -408 c2 -34 -16 -64 -36 -57 -17 7 -13 83 5 94 19 12 28 1 31 -37z"/>
<path d="M401 122 c-15 -28 -15 -29 14 -48 17 -11 52 -18 104 -20 43 -2 82 -4
87 -5 18 -4 64 21 64 34 0 8 -9 22 -20 32 -16 14 -42 19 -129 22 -102 5 -110
3 -120 -15z"/>
</g>
</svg>
